[img]http://i.imgur.com/ym2GP.jpg[/img]

[code]

The.Man.With.The.Iron.Fist.2012.WEBRip.XViD-26k
 
http://www.imdb.com/title/tt1258972/

Plot:

Alice fights alongside a resistance movement in the continuing battle against the Umbrella Corporation and the 

undead.

Sources - VIDEO: WEB-DL 1080p SmY ..... thanks .... :P
          AUDIO: WEB-DL 1080p SmY ..... thanks .... :P
          SUBS : Yes.. HARDCODED CHINESE (AND ENGLISH WHEN NEEDED)

Format                                   : AVI
Format/Info                              : Audio Video Interleave
File size                                : 1.39 GiB
Duration                                 : 1h 35mn
Overall bit rate                         : 2 082 Kbps
Writing library                          : VirtualDub build 32839/release

Video
ID                                       : 0
Format                                   : MPEG-4 Visual
Format profile                           : Advanced Simple@L5
Format settings, BVOP                    : 2
Format settings, QPel                    : Yes
Format settings, GMC                     : No warppoints
Format settings, Matrix                  : Default (H.263)
Muxing mode                              : Packed bitstream
Codec ID                                 : XVID
Codec ID/Hint                            : XviD
Duration                                 : 1h 35mn
Bit rate                                 : 1 816 Kbps
Width                                    : 720 pixels
Height                                   : 400 pixels
Display aspect ratio                     : 16:9
Frame rate                               : 23.976 fps
Color space                              : YUV
Chroma subsampling                       : 4:2:0
Bit depth                                : 8 bits
Scan type                                : Progressive
Compression mode                         : Lossy
Bits/(Pixel*Frame)                       : 0.263
Stream size                              : 1.21 GiB (87%)
Writing library                          : XviD 64

Audio
ID                                       : 1
Format                                   : MPEG Audio
Format version                           : Version 1
Format profile                           : Layer 3
Codec ID                                 : 55
Codec ID/Hint                            : MP3
Duration                                 : 1h 35mn
Bit rate mode                            : Constant
Bit rate                                 : 256 Kbps
Channel(s)                               : 2 channels
Sampling rate                            : 48.0 KHz
Compression mode                         : Lossy
Stream size                              : 175 MiB (12%)
Alignment                                : Split accross interleaves
Interleave, duration                     : 42 ms (1.00 video frame)
Writing library                          : LAMELAME_MAJOR_VERSI

Notes -

Took the 1080 mkv and made a script to resize then dropped into vdub and made sum magic happen.
then just demuxed audio and converted to mp3 and remuxed it to encode... enjoy  :P

Left the Hardcoded Chinese subs as they dont bother me and when cropped u also lose the Enlgish subs
when they are needed :) and left the watermark in top corner as its not a bother either..


[/code]

Screens:

[img]http://i.imgur.com/9z7Qo.png[/img]
[img]http://i.imgur.com/UwIJd.png[/img]
[img]http://i.imgur.com/5r62F.png[/img]
[img]http://i.imgur.com/Z5bHF.png[/img]
[img]http://i.imgur.com/APtfB.jpg[/img]


Greetz:
XtremeEncode|CM8|RX|VISION|HDSCENE|xTriLL|ADTRG|CRYS|REMIXHD|HS|Tommiecook
BIDA|RX|REFILL|INSPiRAL|AXED|HOPE|Anonymous|GooN|NOIR|Blackjesus|Gabroo Punjab Deh
|UNiQUE|RESiSTANCE|HS|LEGION

To all the people who have helped me, you know who you are

Anything to offer email us @: 26k@hushmail.me 